{
    "asset" : {
        "generator" : "Khronos glTF Blender I/O v1.4.40",
        "version" : "2.0"
    },
    "scene" : 0,
    "scenes" : [
        {
            "name" : "Scene",
            "nodes" : [
                0,
                1,
                2
            ]
        }
    ],
    "nodes" : [
        {
            "name" : "Light",
            "rotation" : [
                0.16907575726509094,
                0.7558803558349609,
                -0.27217137813568115,
                0.570947527885437
            ],
            "translation" : [
                4.076245307922363,
                5.903861999511719,
                -1.0054539442062378
            ]
        },
        {
            "name" : "Camera",
            "rotation" : [
                0.7071068286895752,
                0,
                0,
                0.7071068286895752
            ],
            "translation" : [
                5.965816020965576,
                0.431503564119339,
                8.848281860351562
            ]
        },
        {
            "mesh" : 0,
            "name" : "marcaz-1.001",
            "rotation" : [
                -0.7071068286895752,
                0,
                0,
                -0.7071068286895752
            ]
        }
    ],
    "materials" : [
        {
            "doubleSided" : true,
            "emissiveFactor" : [
                0.06847821176052094,
                0.03954622894525528,
                0.022173888981342316
            ],
            "name" : "Color",
            "pbrMetallicRoughness" : {}
        },
        {
            "doubleSided" : true,
            "emissiveFactor" : [
                1,
                1,
                1
            ],
            "name" : "White",
            "pbrMetallicRoughness" : {}
        }
    ],
    "meshes" : [
        {
            "name" : "Curve.001",
            "primitives" : [
                {
                    "attributes" : {
                        "POSITION" : 0,
                        "NORMAL" : 1,
                        "TEXCOORD_0" : 2
                    },
                    "indices" : 3,
                    "material" : 0
                },
                {
                    "attributes" : {
                        "POSITION" : 4,
                        "NORMAL" : 5,
                        "TEXCOORD_0" : 6
                    },
                    "indices" : 7,
                    "material" : 1
                }
            ]
        }
    ],
    "accessors" : [
        {
            "bufferView" : 0,
            "componentType" : 5126,
            "count" : 762,
            "max" : [
                2.057016134262085,
                0.6454758644104004,
                0.9465898275375366
            ],
            "min" : [
                -2.171964168548584,
                -0.6454758644104004,
                -1.2155001163482666
            ],
            "type" : "VEC3"
        },
        {
            "bufferView" : 1,
            "componentType" : 5126,
            "count" : 762,
            "type" : "VEC3"
        },
        {
            "bufferView" : 2,
            "componentType" : 5126,
            "count" : 762,
            "type" : "VEC2"
        },
        {
            "bufferView" : 3,
            "componentType" : 5123,
            "count" : 1638,
            "type" : "SCALAR"
        },
        {
            "bufferView" : 4,
            "componentType" : 5126,
            "count" : 154,
            "max" : [
                2.057016134262085,
                0.6454758644104004,
                0.9415898323059082
            ],
            "min" : [
                -2.171964168548584,
                -0.6454758644104004,
                -1.2084298133850098
            ],
            "type" : "VEC3"
        },
        {
            "bufferView" : 5,
            "componentType" : 5126,
            "count" : 154,
            "type" : "VEC3"
        },
        {
            "bufferView" : 6,
            "componentType" : 5126,
            "count" : 154,
            "type" : "VEC2"
        },
        {
            "bufferView" : 7,
            "componentType" : 5123,
            "count" : 324,
            "type" : "SCALAR"
        }
    ],
    "bufferViews" : [
        {
            "buffer" : 0,
            "byteLength" : 9144,
            "byteOffset" : 0
        },
        {
            "buffer" : 0,
            "byteLength" : 9144,
            "byteOffset" : 9144
        },
        {
            "buffer" : 0,
            "byteLength" : 6096,
            "byteOffset" : 18288
        },
        {
            "buffer" : 0,
            "byteLength" : 3276,
            "byteOffset" : 24384
        },
        {
            "buffer" : 0,
            "byteLength" : 1848,
            "byteOffset" : 27660
        },
        {
            "buffer" : 0,
            "byteLength" : 1848,
            "byteOffset" : 29508
        },
        {
            "buffer" : 0,
            "byteLength" : 1232,
            "byteOffset" : 31356
        },
        {
            "buffer" : 0,
            "byteLength" : 648,
            "byteOffset" : 32588
        }
    ],
    "buffers" : [
        {
            "byteLength" : 33236,
            "uri" : "data:application/octet-stream;base64,"
        }
    ]
}
